<svg id="svg" fill="#0a2a1a" stroke="#0a2a1a" width="200" height="200" version="1.1" viewBox="144 144 512 512" xmlns="http://www.w3.org/2000/svg">
    <g id="IconSvg_bgCarrier" stroke-width="0"></g>
    <g id="IconSvg_tracerCarrier" stroke-linecap="round" stroke-linejoin="round" stroke="#CCCCCC" stroke-width="0">
      <path xmlns="http://www.w3.org/2000/svg" d="m604.04 525.95-165.84-293.89c-5.1172-9.0664-13.293-16.02-23.066-19.609-9.7734-3.5938-20.504-3.5938-30.277 0-9.7734 3.5898-17.949 10.543-23.066 19.609l-165.84 293.89c-7.7109 13.527-7.6367 30.133 0.19531 43.586 7.832 13.457 22.23 21.723 37.801 21.699h332.09c15.566 0.023437 29.969-8.2422 37.797-21.699 7.832-13.453 7.9062-30.059 0.19922-43.586zm-225.04-146.94c0-7.5 4-14.43 10.496-18.18 6.4922-3.75 14.496-3.75 20.992 0 6.4922 3.75 10.496 10.68 10.496 18.18v62.977c0 7.4961-4.0039 14.43-10.496 18.18-6.4961 3.75-14.5 3.75-20.992 0-6.4961-3.75-10.496-10.684-10.496-18.18zm20.992 146.95v-0.003906c-5.5703 0-10.91-2.2109-14.844-6.1484-3.9375-3.9336-6.1484-9.2734-6.1484-14.844 0-5.5664 2.2109-10.906 6.1484-14.844 3.9336-3.9336 9.2734-6.1484 14.844-6.1484 5.5664 0 10.906 2.2148 14.844 6.1484 3.9336 3.9375 6.1484 9.2773 6.1484 14.844 0 5.5703-2.2148 10.91-6.1484 14.844-3.9375 3.9375-9.2773 6.1484-14.844 6.1484z"></path>

      </g>
     <g id="IconSvg_iconCarrier">
      <path xmlns="http://www.w3.org/2000/svg" d="m604.04 525.95-165.84-293.89c-5.1172-9.0664-13.293-16.02-23.066-19.609-9.7734-3.5938-20.504-3.5938-30.277 0-9.7734 3.5898-17.949 10.543-23.066 19.609l-165.84 293.89c-7.7109 13.527-7.6367 30.133 0.19531 43.586 7.832 13.457 22.23 21.723 37.801 21.699h332.09c15.566 0.023437 29.969-8.2422 37.797-21.699 7.832-13.453 7.9062-30.059 0.19922-43.586zm-225.04-146.94c0-7.5 4-14.43 10.496-18.18 6.4922-3.75 14.496-3.75 20.992 0 6.4922 3.75 10.496 10.68 10.496 18.18v62.977c0 7.4961-4.0039 14.43-10.496 18.18-6.4961 3.75-14.5 3.75-20.992 0-6.4961-3.75-10.496-10.684-10.496-18.18zm20.992 146.95v-0.003906c-5.5703 0-10.91-2.2109-14.844-6.1484-3.9375-3.9336-6.1484-9.2734-6.1484-14.844 0-5.5664 2.2109-10.906 6.1484-14.844 3.9336-3.9336 9.2734-6.1484 14.844-6.1484 5.5664 0 10.906 2.2148 14.844 6.1484 3.9336 3.9375 6.1484 9.2773 6.1484 14.844 0 5.5703-2.2148 10.91-6.1484 14.844-3.9375 3.9375-9.2773 6.1484-14.844 6.1484z"></path>

      </g>
      </svg>