<svg id="svg" fill="#0a2a1a" stroke="#0a2a1a" width="200" height="200" version="1.1" viewBox="144 144 512 512" xmlns="http://www.w3.org/2000/svg" transform="matrix(1, 0, 0, 1, 0, 0)">
    <g id="IconSvg_bgCarrier" stroke-width="0"></g>
    <g id="IconSvg_tracerCarrier" stroke-linecap="round" stroke-linejoin="round" stroke="#CCCCCC" stroke-width="0">
      <g xmlns="http://www.w3.org/2000/svg">
  <path d="m355.13 324.43c-3.1836 0-6.0547-1.918-7.2734-4.8594s-0.54688-6.3281 1.707-8.5781c2.25-2.25 5.6367-2.9258 8.5781-1.707s4.8594 4.0898 4.8594 7.2734c0 2.1016-0.83984 4.1172-2.332 5.5938-1.4961 1.4805-3.5156 2.3008-5.6172 2.2773z"></path>
  <path d="m619.79 596.8c-0.91406-0.003906-1.8164-0.16406-2.6758-0.47266l-143.9-51.641-144.06 51.246c-2.3477 0.85156-4.9609 0.53906-7.0391-0.84375-2.082-1.3789-3.3828-3.668-3.5078-6.1641v-157.99 0.003906c0-4.3477 3.5234-7.875 7.8711-7.875 2.0898 0 4.0898 0.83203 5.5664 2.3086 1.4766 1.4727 2.3086 3.4766 2.3086 5.5664v146.89l136.5-48.887c1.7305-0.625 3.6211-0.625 5.3516 0l136.03 48.805v-245.21l-138.7-49.746-66.441 23.617v-0.003906c-3.9883 1.1406-8.1797-1.0156-9.5703-4.9258-1.3945-3.9102 0.48438-8.2305 4.2969-9.8711l69.039-24.562c1.7539-0.64453 3.6758-0.64453 5.4297 0l146.58 52.586c3.1172 1.1289 5.1953 4.0859 5.1953 7.3984v261.9c0 2.0898-0.82812 4.0898-2.3047 5.5664-1.4766 1.4766-3.4805 2.3086-5.5664 2.3086z"></path>
  <path d="m473.21 544.21c-4.3477 0-7.8711-3.5234-7.8711-7.8711l0.39453-261.9c0-4.3477 3.5234-7.875 7.8711-7.875 2.0898 0 4.0898 0.83203 5.5664 2.3086 1.4766 1.4766 2.3047 3.4766 2.3047 5.5664l-0.39062 261.9c0 2.0859-0.83203 4.0898-2.3086 5.5664-1.4766 1.4727-3.4766 2.3047-5.5664 2.3047z"></path>
  <path d="m326.47 596.8c-0.91016-0.003906-1.8164-0.16406-2.6758-0.47266l-146.66-52.98c-3.9648-1.5625-5.9648-5.9961-4.5156-10 1.4492-4.0078 5.8242-6.1328 9.8711-4.8008l136.11 48.805v-146.81 0.003907c0-4.3477 3.5234-7.8711 7.8711-7.8711 2.0898 0 4.0898 0.82812 5.5664 2.3047 1.4766 1.4766 2.3086 3.4766 2.3086 5.5664v158.07c0.011719 2.5586-1.2227 4.9688-3.3086 6.4531-1.3008 1.0469-2.8984 1.6523-4.5664 1.7344z"></path>
  <path d="m248.3 306.32c-0.91406 0-1.8203-0.16016-2.6758-0.47266l-68.094-24.402c-2.0195-0.66406-3.6836-2.1211-4.6133-4.0352-0.92969-1.9102-1.0469-4.1172-0.32422-6.1172 0.72656-2 2.2266-3.6211 4.1641-4.4961s4.1484-0.92969 6.125-0.15234l68.094 24.402v0.003906c3.5898 1.3008 5.7266 4.9961 5.0703 8.7578-0.66016 3.7617-3.9258 6.5078-7.7461 6.5117z"></path>
  <path d="m179.58 543.82c-4.3477 0-7.8711-3.5234-7.8711-7.8711l0.62891-261.9c0-4.3477 3.5234-7.8711 7.8711-7.8711 2.0898 0 4.0898 0.82812 5.5664 2.3047 1.4766 1.4766 2.3047 3.4766 2.3047 5.5664l-0.62891 261.9c0 2.0859-0.82812 4.0898-2.3047 5.5664-1.4766 1.4766-3.4805 2.3047-5.5664 2.3047z"></path>
  <path d="m326.47 438.65c-2.6172 0.003906-5.0664-1.293-6.5312-3.4609l-64.473-96.195c-12.082-17.328-17.41-38.473-14.988-59.457 2.4258-20.984 12.434-40.355 28.145-54.473 15.711-14.121 36.039-22.008 57.16-22.184 21.125-0.17188 41.582 7.3789 57.523 21.234s26.27 33.062 29.039 54c2.7695 20.941-2.2109 42.172-14.004 59.695l-0.39453 0.55078-64.945 96.824 0.003906 0.003906c-1.4648 2.168-3.9141 3.4648-6.5352 3.4609zm0-219.71c-18.789 0-36.809 7.4648-50.098 20.75-13.285 13.289-20.75 31.309-20.75 50.098-0.019531 10.938 2.543 21.727 7.4805 31.488 1.5469 3.0625 3.3086 6.0078 5.2734 8.8164l58.016 86.594 58.648-87.539v-0.55078c9.3281-14.246 13.215-31.379 10.941-48.262-2.2695-16.879-10.547-32.375-23.312-43.652-12.766-11.273-29.168-17.574-46.199-17.742z"></path>
  <path d="m326.47 338.99c-11.523 0-22.574-4.5781-30.727-12.73-8.1484-8.1484-12.727-19.199-12.727-30.727 0-11.523 4.5781-22.574 12.727-30.727 8.1523-8.1484 19.203-12.727 30.727-12.727 11.527 0 22.578 4.5781 30.727 12.727 8.1484 8.1523 12.727 19.203 12.727 30.727 0 11.527-4.5781 22.578-12.727 30.727-8.1484 8.1523-19.199 12.73-30.727 12.73zm0-70.848v-0.003906c-7.3516 0-14.406 2.9258-19.602 8.125-5.1992 5.2031-8.1133 12.258-8.1055 19.613 0.003906 7.3516 2.9336 14.402 8.1445 19.594 5.207 5.1914 12.262 8.1016 19.617 8.0898 7.3516-0.015625 14.398-2.9531 19.586-8.1641 5.1875-5.2109 8.0898-12.273 8.0703-19.625 0.042968-7.375-2.8594-14.465-8.0586-19.695-5.2031-5.2305-12.273-8.1719-19.652-8.1719z"></path>
 </g>

      </g>
     <g id="IconSvg_iconCarrier">
      <g xmlns="http://www.w3.org/2000/svg">
  <path d="m355.13 324.43c-3.1836 0-6.0547-1.918-7.2734-4.8594s-0.54688-6.3281 1.707-8.5781c2.25-2.25 5.6367-2.9258 8.5781-1.707s4.8594 4.0898 4.8594 7.2734c0 2.1016-0.83984 4.1172-2.332 5.5938-1.4961 1.4805-3.5156 2.3008-5.6172 2.2773z"></path>
  <path d="m619.79 596.8c-0.91406-0.003906-1.8164-0.16406-2.6758-0.47266l-143.9-51.641-144.06 51.246c-2.3477 0.85156-4.9609 0.53906-7.0391-0.84375-2.082-1.3789-3.3828-3.668-3.5078-6.1641v-157.99 0.003906c0-4.3477 3.5234-7.875 7.8711-7.875 2.0898 0 4.0898 0.83203 5.5664 2.3086 1.4766 1.4727 2.3086 3.4766 2.3086 5.5664v146.89l136.5-48.887c1.7305-0.625 3.6211-0.625 5.3516 0l136.03 48.805v-245.21l-138.7-49.746-66.441 23.617v-0.003906c-3.9883 1.1406-8.1797-1.0156-9.5703-4.9258-1.3945-3.9102 0.48438-8.2305 4.2969-9.8711l69.039-24.562c1.7539-0.64453 3.6758-0.64453 5.4297 0l146.58 52.586c3.1172 1.1289 5.1953 4.0859 5.1953 7.3984v261.9c0 2.0898-0.82812 4.0898-2.3047 5.5664-1.4766 1.4766-3.4805 2.3086-5.5664 2.3086z"></path>
  <path d="m473.21 544.21c-4.3477 0-7.8711-3.5234-7.8711-7.8711l0.39453-261.9c0-4.3477 3.5234-7.875 7.8711-7.875 2.0898 0 4.0898 0.83203 5.5664 2.3086 1.4766 1.4766 2.3047 3.4766 2.3047 5.5664l-0.39062 261.9c0 2.0859-0.83203 4.0898-2.3086 5.5664-1.4766 1.4727-3.4766 2.3047-5.5664 2.3047z"></path>
  <path d="m326.47 596.8c-0.91016-0.003906-1.8164-0.16406-2.6758-0.47266l-146.66-52.98c-3.9648-1.5625-5.9648-5.9961-4.5156-10 1.4492-4.0078 5.8242-6.1328 9.8711-4.8008l136.11 48.805v-146.81 0.003907c0-4.3477 3.5234-7.8711 7.8711-7.8711 2.0898 0 4.0898 0.82812 5.5664 2.3047 1.4766 1.4766 2.3086 3.4766 2.3086 5.5664v158.07c0.011719 2.5586-1.2227 4.9688-3.3086 6.4531-1.3008 1.0469-2.8984 1.6523-4.5664 1.7344z"></path>
  <path d="m248.3 306.32c-0.91406 0-1.8203-0.16016-2.6758-0.47266l-68.094-24.402c-2.0195-0.66406-3.6836-2.1211-4.6133-4.0352-0.92969-1.9102-1.0469-4.1172-0.32422-6.1172 0.72656-2 2.2266-3.6211 4.1641-4.4961s4.1484-0.92969 6.125-0.15234l68.094 24.402v0.003906c3.5898 1.3008 5.7266 4.9961 5.0703 8.7578-0.66016 3.7617-3.9258 6.5078-7.7461 6.5117z"></path>
  <path d="m179.58 543.82c-4.3477 0-7.8711-3.5234-7.8711-7.8711l0.62891-261.9c0-4.3477 3.5234-7.8711 7.8711-7.8711 2.0898 0 4.0898 0.82812 5.5664 2.3047 1.4766 1.4766 2.3047 3.4766 2.3047 5.5664l-0.62891 261.9c0 2.0859-0.82812 4.0898-2.3047 5.5664-1.4766 1.4766-3.4805 2.3047-5.5664 2.3047z"></path>
  <path d="m326.47 438.65c-2.6172 0.003906-5.0664-1.293-6.5312-3.4609l-64.473-96.195c-12.082-17.328-17.41-38.473-14.988-59.457 2.4258-20.984 12.434-40.355 28.145-54.473 15.711-14.121 36.039-22.008 57.16-22.184 21.125-0.17188 41.582 7.3789 57.523 21.234s26.27 33.062 29.039 54c2.7695 20.941-2.2109 42.172-14.004 59.695l-0.39453 0.55078-64.945 96.824 0.003906 0.003906c-1.4648 2.168-3.9141 3.4648-6.5352 3.4609zm0-219.71c-18.789 0-36.809 7.4648-50.098 20.75-13.285 13.289-20.75 31.309-20.75 50.098-0.019531 10.938 2.543 21.727 7.4805 31.488 1.5469 3.0625 3.3086 6.0078 5.2734 8.8164l58.016 86.594 58.648-87.539v-0.55078c9.3281-14.246 13.215-31.379 10.941-48.262-2.2695-16.879-10.547-32.375-23.312-43.652-12.766-11.273-29.168-17.574-46.199-17.742z"></path>
  <path d="m326.47 338.99c-11.523 0-22.574-4.5781-30.727-12.73-8.1484-8.1484-12.727-19.199-12.727-30.727 0-11.523 4.5781-22.574 12.727-30.727 8.1523-8.1484 19.203-12.727 30.727-12.727 11.527 0 22.578 4.5781 30.727 12.727 8.1484 8.1523 12.727 19.203 12.727 30.727 0 11.527-4.5781 22.578-12.727 30.727-8.1484 8.1523-19.199 12.73-30.727 12.73zm0-70.848v-0.003906c-7.3516 0-14.406 2.9258-19.602 8.125-5.1992 5.2031-8.1133 12.258-8.1055 19.613 0.003906 7.3516 2.9336 14.402 8.1445 19.594 5.207 5.1914 12.262 8.1016 19.617 8.0898 7.3516-0.015625 14.398-2.9531 19.586-8.1641 5.1875-5.2109 8.0898-12.273 8.0703-19.625 0.042968-7.375-2.8594-14.465-8.0586-19.695-5.2031-5.2305-12.273-8.1719-19.652-8.1719z"></path>
 </g>

      </g>
      </svg>