<svg id="svg" fill="#0a2a1a" stroke="#0a2a1a" width="200" height="200" version="1.1" viewBox="144 144 512 512" xmlns="http://www.w3.org/2000/svg" transform="rotate(180)">
    <g id="IconSvg_bgCarrier" stroke-width="0"></g>
    <g id="IconSvg_tracerCarrier" stroke-linecap="round" stroke-linejoin="round" stroke="#CCCCCC" stroke-width="0">
      <g xmlns="http://www.w3.org/2000/svg">
  <path d="m360.08 269.21c0-7.9023-6.4297-14.336-14.344-14.336-7.9023 0-14.336 6.4297-14.336 14.336 0 6.2695 4.0391 11.609 9.6523 13.555v31.152h-36.348c-1.9453-5.6133-7.2852-9.6523-13.551-9.6523-7.9062 0-14.344 6.4297-14.344 14.336s6.4297 14.344 14.344 14.344c6.2617 0 11.605-4.043 13.551-9.6562h38.918l21.266 24.742c-0.75391 0.52344-1.4961 1.0625-2.2227 1.6172-0.24609 0.1875-0.55469 0.23437-0.83594 0.12109l-12.266-4.793c-4.7422-1.8516-10.027 0-12.574 4.4102l-11.066 19.172c-2.5078 4.3359-1.4531 9.9648 2.4648 13.094l10.277 8.2148c0.23438 0.1875 0.34766 0.48047 0.30859 0.79297-0.13672 1.0625-0.24609 2.1289-0.32422 3.1992h-51.348c-1.9453-5.6133-7.2852-9.6523-13.555-9.6523-7.9023 0-14.336 6.4297-14.336 14.336s6.4297 14.344 14.336 14.344c6.2695 0 11.609-4.043 13.555-9.6562h51.352c0.078125 1.0742 0.1875 2.1406 0.32422 3.1992 0.039063 0.30469-0.074218 0.60547-0.30859 0.79297l-10.281 8.2227c-3.9688 3.1797-5.0117 8.6797-2.4688 13.094l11.07 19.172c2.5469 4.4023 7.832 6.2578 12.574 4.4023l12.266-4.793c0.28125-0.10937 0.59375-0.058593 0.83203 0.12109 1.1602 0.88672 2.3516 1.7305 3.5781 2.5273l-23.355 27.172h-23.852c-1.9453-5.6133-7.2852-9.6523-13.551-9.6523-7.9062 0-14.344 6.4297-14.344 14.336s6.4297 14.344 14.344 14.344c6.2617 0 11.605-4.043 13.551-9.6562h22.441l13.691 32.082c-2.9609 2.6211-4.832 6.4531-4.832 10.723 0 7.9023 6.4297 14.336 14.344 14.336 7.9023 0 14.336-6.4297 14.336-14.336s-6.4297-14.344-14.336-14.344c-0.28516 0-0.57031 0.011719-0.85156 0.03125l-13.648-31.977 24.43-28.418c0.57031 0.26172 1.1445 0.51172 1.7266 0.75391 0.26562 0.11328 0.46094 0.35938 0.50781 0.64453l1.9844 13.008c0.76172 5.0312 5.0117 8.6836 10.105 8.6836h4.043v73.895c0 10.441-4.2266 19.891-11.059 26.73-6.8281 6.832-16.27 11.066-26.715 11.066-20.871 0-37.797-16.922-37.797-37.797 0-3.75 0.54297-7.375 1.5664-10.789-3.9805 0.96094-8.1484 1.4727-12.43 1.4727-29.18 0-52.84-23.66-52.84-52.836 0-10.832 3.2031-20.895 8.793-29.27 0 0 0-0.003906 0.011718-0.019531h-0.003906c-33.969-0.003906-61.504-27.539-61.504-61.516 0-19.676 9.2305-37.184 23.602-48.441-0.375-0.80078-0.73438-1.6172-1.0664-2.4414-2.5977-6.3828-4.0391-13.371-4.0391-20.688 0-27.34 20.02-50.012 46.199-54.156-0.83594-3.3906-1.2773-6.9336-1.2773-10.582 0-24.441 19.816-44.262 44.262-44.262 9.1328 0 17.613 2.7695 24.66 7.5039 5.7383-9.0117 15.828-14.988 27.301-14.988 17.879 0 32.34 14.488 32.34 32.367v76.434h-4.043c-5.0938 0-9.3438 3.6562-10.105 8.6836l-1.9844 13.004c-0.042969 0.28906-0.24219 0.54297-0.51562 0.65625-1.0938 0.45313-2.168 0.94141-3.2344 1.4609l-22.672-26.383v-34.066c5.6133-1.918 9.6562-7.2617 9.6562-13.527z"></path>
  <path d="m537.5 460.16c0 0.003906 0.003906 0.015625 0.003906 0.019531 5.5898 8.3789 8.793 18.441 8.793 29.27 0 29.176-23.66 52.836-52.84 52.836-4.2812 0-8.4492-0.51172-12.43-1.4727 1.0234 3.4141 1.5664 7.0391 1.5664 10.789 0 20.875-16.922 37.797-37.797 37.797-10.441 0-19.883-4.2305-26.715-11.066-6.832-6.8398-11.059-16.289-11.059-26.73l-0.003907-73.891h4.0391c5.0938 0 9.3438-3.6562 10.105-8.6836l1.9844-13.008c0.042968-0.28516 0.24219-0.53516 0.51562-0.64844 0.99219-0.41797 1.9766-0.85547 2.9414-1.3242l23.75 27.629-13.648 31.969c-0.28125-0.019531-0.56641-0.03125-0.85156-0.03125-7.9062 0-14.344 6.4297-14.344 14.344 0 7.9023 6.4297 14.336 14.344 14.336 7.9023 0 14.336-6.4297 14.336-14.336 0-4.2656-1.8711-8.0938-4.8281-10.727l13.688-32.078h22.445c1.9453 5.6133 7.2852 9.6562 13.551 9.6562 7.9062 0 14.344-6.4297 14.344-14.344 0-7.9023-6.4297-14.336-14.344-14.336-6.2617 0-11.605 4.0391-13.551 9.6523h-23.852l-22.801-26.523c0.84766-0.57422 1.6758-1.1797 2.4961-1.8047 0.24219-0.1875 0.54688-0.23047 0.83203-0.12109l12.266 4.793c4.7383 1.8555 10.027 0 12.574-4.4102l11.07-19.168c2.5469-4.4141 1.5117-9.9219-2.4688-13.094l-10.281-8.2266c-0.23438-0.18359-0.34375-0.47656-0.30859-0.77344 0.17187-1.3594 0.30469-2.7305 0.38281-4.1172h52.723c1.9453 5.6133 7.2852 9.6562 13.551 9.6562 7.9062 0 14.336-6.4297 14.336-14.344 0-7.9023-6.4258-14.336-14.336-14.336-6.2617 0-11.605 4.0391-13.551 9.6523l-52.863 0.007812c-0.0625-0.76562-0.14844-1.5312-0.24609-2.293-0.039062-0.30859 0.074219-0.60547 0.30859-0.79297l10.277-8.2148c3.9219-3.1289 4.9844-8.7617 2.4766-13.094l-11.07-19.18c-2.543-4.4102-7.832-6.2578-12.574-4.4102l-12.266 4.793c-0.28125 0.11328-0.58984 0.0625-0.83594-0.11719-0.85938-0.66016-1.7422-1.3008-2.6367-1.9102l22.203-25.828h38.918c1.9453 5.6133 7.2852 9.6523 13.555 9.6523 7.9023 0 14.336-6.4297 14.336-14.336s-6.4297-14.344-14.336-14.344c-6.2695 0-11.609 4.043-13.555 9.6562h-36.348v-31.16c5.6133-1.9453 9.6562-7.2852 9.6562-13.555 0-7.9023-6.4297-14.336-14.344-14.336-7.9023 0-14.336 6.4297-14.336 14.336 0 6.2695 4.0391 11.609 9.6523 13.555v34.066l-23.66 27.523c-0.92188-0.4375-1.8398-0.85156-2.7812-1.2383-0.26953-0.11328-0.46875-0.35938-0.51172-0.64844l-1.9844-13.004c-0.76172-5.0312-5.0117-8.6836-10.105-8.6836h-4.0391l0.003907-76.441c0-17.879 14.461-32.367 32.34-32.367 11.477 0 21.562 5.9727 27.301 14.988 7.0469-4.7383 15.531-7.5039 24.66-7.5039 24.441 0 44.262 19.816 44.262 44.262 0 3.6523-0.44141 7.1914-1.2773 10.582 26.18 4.1445 46.199 26.812 46.199 54.156 0 7.3164-1.4375 14.309-4.0391 20.688-0.33984 0.82812-0.69531 1.6367-1.0664 2.4414 14.371 11.258 23.602 28.766 23.602 48.441 0 33.965-27.531 61.5-61.504 61.504z"></path>
  <path d="m428.06 398.55c0 13.074-8.9414 24.059-21.027 27.172-2.2422 0.58203-4.6016 0.89062-7.0273 0.89062-2.4258 0-4.7812-0.30859-7.0273-0.89062-12.098-3.1133-21.031-14.102-21.031-27.172 0-13.074 8.9414-24.055 21.031-27.172 2.2422-0.57422 4.6016-0.88672 7.0273-0.88672 2.4258 0 4.7812 0.30859 7.0273 0.88672 12.086 3.1211 21.027 14.102 21.027 27.172z"></path>
 </g>

      </g>
     <g id="IconSvg_iconCarrier">
      <g xmlns="http://www.w3.org/2000/svg">
  <path d="m360.08 269.21c0-7.9023-6.4297-14.336-14.344-14.336-7.9023 0-14.336 6.4297-14.336 14.336 0 6.2695 4.0391 11.609 9.6523 13.555v31.152h-36.348c-1.9453-5.6133-7.2852-9.6523-13.551-9.6523-7.9062 0-14.344 6.4297-14.344 14.336s6.4297 14.344 14.344 14.344c6.2617 0 11.605-4.043 13.551-9.6562h38.918l21.266 24.742c-0.75391 0.52344-1.4961 1.0625-2.2227 1.6172-0.24609 0.1875-0.55469 0.23437-0.83594 0.12109l-12.266-4.793c-4.7422-1.8516-10.027 0-12.574 4.4102l-11.066 19.172c-2.5078 4.3359-1.4531 9.9648 2.4648 13.094l10.277 8.2148c0.23438 0.1875 0.34766 0.48047 0.30859 0.79297-0.13672 1.0625-0.24609 2.1289-0.32422 3.1992h-51.348c-1.9453-5.6133-7.2852-9.6523-13.555-9.6523-7.9023 0-14.336 6.4297-14.336 14.336s6.4297 14.344 14.336 14.344c6.2695 0 11.609-4.043 13.555-9.6562h51.352c0.078125 1.0742 0.1875 2.1406 0.32422 3.1992 0.039063 0.30469-0.074218 0.60547-0.30859 0.79297l-10.281 8.2227c-3.9688 3.1797-5.0117 8.6797-2.4688 13.094l11.07 19.172c2.5469 4.4023 7.832 6.2578 12.574 4.4023l12.266-4.793c0.28125-0.10937 0.59375-0.058593 0.83203 0.12109 1.1602 0.88672 2.3516 1.7305 3.5781 2.5273l-23.355 27.172h-23.852c-1.9453-5.6133-7.2852-9.6523-13.551-9.6523-7.9062 0-14.344 6.4297-14.344 14.336s6.4297 14.344 14.344 14.344c6.2617 0 11.605-4.043 13.551-9.6562h22.441l13.691 32.082c-2.9609 2.6211-4.832 6.4531-4.832 10.723 0 7.9023 6.4297 14.336 14.344 14.336 7.9023 0 14.336-6.4297 14.336-14.336s-6.4297-14.344-14.336-14.344c-0.28516 0-0.57031 0.011719-0.85156 0.03125l-13.648-31.977 24.43-28.418c0.57031 0.26172 1.1445 0.51172 1.7266 0.75391 0.26562 0.11328 0.46094 0.35938 0.50781 0.64453l1.9844 13.008c0.76172 5.0312 5.0117 8.6836 10.105 8.6836h4.043v73.895c0 10.441-4.2266 19.891-11.059 26.73-6.8281 6.832-16.27 11.066-26.715 11.066-20.871 0-37.797-16.922-37.797-37.797 0-3.75 0.54297-7.375 1.5664-10.789-3.9805 0.96094-8.1484 1.4727-12.43 1.4727-29.18 0-52.84-23.66-52.84-52.836 0-10.832 3.2031-20.895 8.793-29.27 0 0 0-0.003906 0.011718-0.019531h-0.003906c-33.969-0.003906-61.504-27.539-61.504-61.516 0-19.676 9.2305-37.184 23.602-48.441-0.375-0.80078-0.73438-1.6172-1.0664-2.4414-2.5977-6.3828-4.0391-13.371-4.0391-20.688 0-27.34 20.02-50.012 46.199-54.156-0.83594-3.3906-1.2773-6.9336-1.2773-10.582 0-24.441 19.816-44.262 44.262-44.262 9.1328 0 17.613 2.7695 24.66 7.5039 5.7383-9.0117 15.828-14.988 27.301-14.988 17.879 0 32.34 14.488 32.34 32.367v76.434h-4.043c-5.0938 0-9.3438 3.6562-10.105 8.6836l-1.9844 13.004c-0.042969 0.28906-0.24219 0.54297-0.51562 0.65625-1.0938 0.45313-2.168 0.94141-3.2344 1.4609l-22.672-26.383v-34.066c5.6133-1.918 9.6562-7.2617 9.6562-13.527z"></path>
  <path d="m537.5 460.16c0 0.003906 0.003906 0.015625 0.003906 0.019531 5.5898 8.3789 8.793 18.441 8.793 29.27 0 29.176-23.66 52.836-52.84 52.836-4.2812 0-8.4492-0.51172-12.43-1.4727 1.0234 3.4141 1.5664 7.0391 1.5664 10.789 0 20.875-16.922 37.797-37.797 37.797-10.441 0-19.883-4.2305-26.715-11.066-6.832-6.8398-11.059-16.289-11.059-26.73l-0.003907-73.891h4.0391c5.0938 0 9.3438-3.6562 10.105-8.6836l1.9844-13.008c0.042968-0.28516 0.24219-0.53516 0.51562-0.64844 0.99219-0.41797 1.9766-0.85547 2.9414-1.3242l23.75 27.629-13.648 31.969c-0.28125-0.019531-0.56641-0.03125-0.85156-0.03125-7.9062 0-14.344 6.4297-14.344 14.344 0 7.9023 6.4297 14.336 14.344 14.336 7.9023 0 14.336-6.4297 14.336-14.336 0-4.2656-1.8711-8.0938-4.8281-10.727l13.688-32.078h22.445c1.9453 5.6133 7.2852 9.6562 13.551 9.6562 7.9062 0 14.344-6.4297 14.344-14.344 0-7.9023-6.4297-14.336-14.344-14.336-6.2617 0-11.605 4.0391-13.551 9.6523h-23.852l-22.801-26.523c0.84766-0.57422 1.6758-1.1797 2.4961-1.8047 0.24219-0.1875 0.54688-0.23047 0.83203-0.12109l12.266 4.793c4.7383 1.8555 10.027 0 12.574-4.4102l11.07-19.168c2.5469-4.4141 1.5117-9.9219-2.4688-13.094l-10.281-8.2266c-0.23438-0.18359-0.34375-0.47656-0.30859-0.77344 0.17187-1.3594 0.30469-2.7305 0.38281-4.1172h52.723c1.9453 5.6133 7.2852 9.6562 13.551 9.6562 7.9062 0 14.336-6.4297 14.336-14.344 0-7.9023-6.4258-14.336-14.336-14.336-6.2617 0-11.605 4.0391-13.551 9.6523l-52.863 0.007812c-0.0625-0.76562-0.14844-1.5312-0.24609-2.293-0.039062-0.30859 0.074219-0.60547 0.30859-0.79297l10.277-8.2148c3.9219-3.1289 4.9844-8.7617 2.4766-13.094l-11.07-19.18c-2.543-4.4102-7.832-6.2578-12.574-4.4102l-12.266 4.793c-0.28125 0.11328-0.58984 0.0625-0.83594-0.11719-0.85938-0.66016-1.7422-1.3008-2.6367-1.9102l22.203-25.828h38.918c1.9453 5.6133 7.2852 9.6523 13.555 9.6523 7.9023 0 14.336-6.4297 14.336-14.336s-6.4297-14.344-14.336-14.344c-6.2695 0-11.609 4.043-13.555 9.6562h-36.348v-31.16c5.6133-1.9453 9.6562-7.2852 9.6562-13.555 0-7.9023-6.4297-14.336-14.344-14.336-7.9023 0-14.336 6.4297-14.336 14.336 0 6.2695 4.0391 11.609 9.6523 13.555v34.066l-23.66 27.523c-0.92188-0.4375-1.8398-0.85156-2.7812-1.2383-0.26953-0.11328-0.46875-0.35938-0.51172-0.64844l-1.9844-13.004c-0.76172-5.0312-5.0117-8.6836-10.105-8.6836h-4.0391l0.003907-76.441c0-17.879 14.461-32.367 32.34-32.367 11.477 0 21.562 5.9727 27.301 14.988 7.0469-4.7383 15.531-7.5039 24.66-7.5039 24.441 0 44.262 19.816 44.262 44.262 0 3.6523-0.44141 7.1914-1.2773 10.582 26.18 4.1445 46.199 26.812 46.199 54.156 0 7.3164-1.4375 14.309-4.0391 20.688-0.33984 0.82812-0.69531 1.6367-1.0664 2.4414 14.371 11.258 23.602 28.766 23.602 48.441 0 33.965-27.531 61.5-61.504 61.504z"></path>
  <path d="m428.06 398.55c0 13.074-8.9414 24.059-21.027 27.172-2.2422 0.58203-4.6016 0.89062-7.0273 0.89062-2.4258 0-4.7812-0.30859-7.0273-0.89062-12.098-3.1133-21.031-14.102-21.031-27.172 0-13.074 8.9414-24.055 21.031-27.172 2.2422-0.57422 4.6016-0.88672 7.0273-0.88672 2.4258 0 4.7812 0.30859 7.0273 0.88672 12.086 3.1211 21.027 14.102 21.027 27.172z"></path>
 </g>

      </g>
      </svg>