<svg id="svg" fill="#0a2a1a" stroke="#0a2a1a" width="200" height="200" version="1.1" viewBox="144 144 512 512" xmlns="http://www.w3.org/2000/svg">
    <g id="IconSvg_bgCarrier" stroke-width="0"></g>
    <g id="IconSvg_tracerCarrier" stroke-linecap="round" stroke-linejoin="round" stroke="#CCCCCC" stroke-width="0">
      <g xmlns="http://www.w3.org/2000/svg">
  <path d="m195.32 321.28c4.1758 0 8.1836-1.6562 11.133-4.6094 2.9531-2.9531 4.6133-6.957 4.6133-11.133v-78.723c0-4.1758 1.6602-8.1797 4.6094-11.133 2.9531-2.9492 6.957-4.6094 11.133-4.6094h86.594c5.625 0 10.824-3 13.633-7.8711 2.8125-4.8711 2.8125-10.875 0-15.746-2.8086-4.8711-8.0078-7.8711-13.633-7.8711h-86.594c-12.523 0-24.539 4.9766-33.398 13.832-8.8555 8.8594-13.832 20.875-13.832 33.398v78.723c0 4.1758 1.6602 8.1797 4.6094 11.133 2.9531 2.9531 6.957 4.6094 11.133 4.6094z"></path>
  <path d="m573.18 179.58h-86.594c-5.625 0-10.82 3-13.633 7.8711s-2.8125 10.875 0 15.746c2.8125 4.8711 8.0078 7.8711 13.633 7.8711h86.594c4.1758 0 8.1797 1.6602 11.133 4.6094 2.9531 2.9531 4.6094 6.957 4.6094 11.133v78.723c0 5.625 3.0039 10.82 7.875 13.633 4.8711 2.8125 10.871 2.8125 15.742 0 4.8711-2.8125 7.8711-8.0078 7.8711-13.633v-78.723c0-12.523-4.9766-24.539-13.832-33.398-8.8594-8.8555-20.871-13.832-33.398-13.832z"></path>
  <path d="m604.67 478.72c-4.1758 0-8.1797 1.6602-11.133 4.6094-2.9531 2.9531-4.6133 6.9609-4.6133 11.133v78.723c0 4.1758-1.6562 8.1797-4.6094 11.133s-6.957 4.6094-11.133 4.6094h-86.594c-5.625 0-10.82 3.0039-13.633 7.875-2.8125 4.8711-2.8125 10.871 0 15.742 2.8125 4.8711 8.0078 7.8711 13.633 7.8711h86.594c12.527 0 24.539-4.9766 33.398-13.832 8.8555-8.8594 13.832-20.871 13.832-33.398v-78.723c0-4.1719-1.6562-8.1797-4.6094-11.133-2.9531-2.9492-6.957-4.6094-11.133-4.6094z"></path>
  <path d="m313.41 588.93h-86.594c-4.1758 0-8.1797-1.6562-11.133-4.6094-2.9492-2.9531-4.6094-6.957-4.6094-11.133v-78.723c0-5.6211-3-10.82-7.8711-13.633-4.8711-2.8125-10.875-2.8125-15.746 0s-7.8711 8.0117-7.8711 13.633v78.723c0 12.527 4.9766 24.539 13.832 33.398 8.8594 8.8555 20.875 13.832 33.398 13.832h86.594c5.625 0 10.824-3 13.633-7.8711 2.8125-4.8711 2.8125-10.871 0-15.742-2.8086-4.8711-8.0078-7.875-13.633-7.875z"></path>
  <path d="m604.67 384.25h-409.35c-5.625 0-10.82 3-13.633 7.8711s-2.8125 10.875 0 15.746 8.0078 7.8711 13.633 7.8711h409.35c5.625 0 10.82-3 13.633-7.8711s2.8125-10.875 0-15.746-8.0078-7.8711-13.633-7.8711z"></path>
 </g>

      </g>
     <g id="IconSvg_iconCarrier">
      <g xmlns="http://www.w3.org/2000/svg">
  <path d="m195.32 321.28c4.1758 0 8.1836-1.6562 11.133-4.6094 2.9531-2.9531 4.6133-6.957 4.6133-11.133v-78.723c0-4.1758 1.6602-8.1797 4.6094-11.133 2.9531-2.9492 6.957-4.6094 11.133-4.6094h86.594c5.625 0 10.824-3 13.633-7.8711 2.8125-4.8711 2.8125-10.875 0-15.746-2.8086-4.8711-8.0078-7.8711-13.633-7.8711h-86.594c-12.523 0-24.539 4.9766-33.398 13.832-8.8555 8.8594-13.832 20.875-13.832 33.398v78.723c0 4.1758 1.6602 8.1797 4.6094 11.133 2.9531 2.9531 6.957 4.6094 11.133 4.6094z"></path>
  <path d="m573.18 179.58h-86.594c-5.625 0-10.82 3-13.633 7.8711s-2.8125 10.875 0 15.746c2.8125 4.8711 8.0078 7.8711 13.633 7.8711h86.594c4.1758 0 8.1797 1.6602 11.133 4.6094 2.9531 2.9531 4.6094 6.957 4.6094 11.133v78.723c0 5.625 3.0039 10.82 7.875 13.633 4.8711 2.8125 10.871 2.8125 15.742 0 4.8711-2.8125 7.8711-8.0078 7.8711-13.633v-78.723c0-12.523-4.9766-24.539-13.832-33.398-8.8594-8.8555-20.871-13.832-33.398-13.832z"></path>
  <path d="m604.67 478.72c-4.1758 0-8.1797 1.6602-11.133 4.6094-2.9531 2.9531-4.6133 6.9609-4.6133 11.133v78.723c0 4.1758-1.6562 8.1797-4.6094 11.133s-6.957 4.6094-11.133 4.6094h-86.594c-5.625 0-10.82 3.0039-13.633 7.875-2.8125 4.8711-2.8125 10.871 0 15.742 2.8125 4.8711 8.0078 7.8711 13.633 7.8711h86.594c12.527 0 24.539-4.9766 33.398-13.832 8.8555-8.8594 13.832-20.871 13.832-33.398v-78.723c0-4.1719-1.6562-8.1797-4.6094-11.133-2.9531-2.9492-6.957-4.6094-11.133-4.6094z"></path>
  <path d="m313.41 588.93h-86.594c-4.1758 0-8.1797-1.6562-11.133-4.6094-2.9492-2.9531-4.6094-6.957-4.6094-11.133v-78.723c0-5.6211-3-10.82-7.8711-13.633-4.8711-2.8125-10.875-2.8125-15.746 0s-7.8711 8.0117-7.8711 13.633v78.723c0 12.527 4.9766 24.539 13.832 33.398 8.8594 8.8555 20.875 13.832 33.398 13.832h86.594c5.625 0 10.824-3 13.633-7.8711 2.8125-4.8711 2.8125-10.871 0-15.742-2.8086-4.8711-8.0078-7.875-13.633-7.875z"></path>
  <path d="m604.67 384.25h-409.35c-5.625 0-10.82 3-13.633 7.8711s-2.8125 10.875 0 15.746 8.0078 7.8711 13.633 7.8711h409.35c5.625 0 10.82-3 13.633-7.8711s2.8125-10.875 0-15.746-8.0078-7.8711-13.633-7.8711z"></path>
 </g>

      </g>
      </svg>