<?xml version="1.0" standalone="no"?> <!DOCTYPE svg PUBLIC "-//W3C//DTD SVG 20010904//EN" "http://www.w3.org/TR/2001/REC-SVG-20010904/DTD/svg10.dtd"> <svg version="1.0" xmlns="http://www.w3.org/2000/svg" width="512.000000pt" height="512.000000pt" viewBox="0 0 512.000000 512.000000" preserveAspectRatio="xMidYMid meet"> <g transform="translate(0.000000,512.000000) scale(0.100000,-0.100000)" fill="#0a2a1a" stroke="none"> <path d="M2540 5034 c-1219 -112 -2140 -1107 -2140 -2315 l0 -95 -70 -49 c-122 -83 -203 -191 -235 -310 -23 -89 -23 -1561 0 -1650 123 -470 1044 -692 1714 -413 129 54 297 179 337 251 9 16 18 15 126 -7 659 -137 1368 39 1903 471 708 573 1014 1492 791 2377 -228 898 -984 1581 -1906 1721 -102 15 -429 27 -520 19z m46 -560 c72 -97 196 -97 268 0 18 23 22 45 24 135 l4 108 95 -14 c359 -49 765 -223 998 -427 l40 -35 -67 -68 c-94 -95 -113 -163 -65 -234 74 -110 172 -107 290 9 l68 67 35 -40 c209 -242 400 -696 430 -1022 l7 -71 -106 -4 c-149 -4 -202 -46 -202 -158 0 -112 53 -154 202 -158 l106 -4 -7 -71 c-23 -246 -141 -584 -284 -814 -57 -92 -169 -243 -180 -243 -4 0 -34 27 -67 61 -114 116 -218 120 -292 10 -48 -71 -29 -139 65 -234 l67 -68 -40 -35 c-238 -205 -641 -378 -992 -427 l-101 -14 -4 108 c-4 151 -46 204 -158 204 -112 0 -154 -53 -158 -204 l-4 -108 -91 13 c-51 7 -121 19 -157 27 l-65 13 -5 739 -5 740 -23 57 c-155 383 -814 581 -1466 441 l-29 -6 7 94 c30 417 199 853 440 1134 l34 40 74 -72 c105 -102 184 -112 260 -32 75 79 65 153 -33 254 -38 39 -69 74 -69 78 0 10 154 124 238 177 230 142 522 247 789 283 l98 13 5 -107 c4 -88 9 -113 26 -135z m-1249 -2005 c280 -31 552 -162 578 -279 38 -174 -341 -350 -755 -350 -413 0 -793 176 -755 350 11 51 95 125 198 175 198 96 467 134 734 104z m-667 -883 c387 -110 869 -78 1179 78 l71 35 0 -139 c0 -161 -4 -175 -66 -236 -263 -255 -1024 -271 -1355 -28 -86 63 -99 97 -99 262 l0 141 93 -44 c50 -24 130 -55 177 -69z m0 -720 c387 -110 875 -77 1180 79 l70 35 0 -139 c0 -162 -4 -176 -66 -237 -275 -267 -1113 -267 -1388 0 -62 61 -66 75 -66 236 l0 139 93 -44 c50 -24 130 -55 177 -69z"/> <path d="M2655 4066 c-37 -17 -70 -52 -84 -89 -18 -47 -15 -1279 3 -1320 8 -18 200 -217 442 -459 464 -462 450 -450 541 -433 49 9 109 69 118 118 17 91 26 80 -400 507 l-395 395 -2 597 c-3 585 -3 597 -24 624 -48 65 -133 91 -199 60z"/> </g> </svg>