<svg id="svg" fill="#52b788" stroke="#52b788" width="200" height="200" version="1.1" viewBox="144 144 512 512" xmlns="http://www.w3.org/2000/svg">
    <g id="IconSvg_bgCarrier" stroke-width="0"></g>
    <g id="IconSvg_tracerCarrier" stroke-linecap="round" stroke-linejoin="round" stroke="#CCCCCC" stroke-width="0">
      <g xmlns="http://www.w3.org/2000/svg">
  <path d="m352.77 494.46c-4.1914 0.027343-8.2227-1.625-11.195-4.582-2.9727-2.957-4.6445-6.9805-4.6406-11.172 0.003906-4.1953 1.6797-8.2148 4.6602-11.168l157.44-157.44-0.003906 0.003906c2.957-2.9805 6.9805-4.6602 11.18-4.6602s8.2227 1.6797 11.18 4.6602c2.9297 2.9492 4.5781 6.9375 4.5781 11.098 0 4.1602-1.6484 8.1484-4.5781 11.102l-157.44 157.44v-0.003907c-2.9453 3.0078-6.9727 4.707-11.18 4.7227z"></path>
  <path d="m352.77 494.46c-4.1523-0.058594-8.1133-1.7539-11.02-4.7227l-62.977-62.977c-2.9336-2.9492-4.5781-6.9375-4.5781-11.098 0-4.1602 1.6445-8.1484 4.5781-11.102 2.957-2.9805 6.9805-4.6562 11.18-4.6562 4.1953 0 8.2188 1.6758 11.176 4.6562l62.977 62.977c2.9922 2.9688 4.668 7.0078 4.6602 11.219-0.011719 4.2148-1.707 8.2461-4.7148 11.199-3.0039 2.9492-7.0703 4.5742-11.281 4.5039z"></path>
  <path d="m400 636.16c-62.637 0-122.7-24.883-166.99-69.172-44.289-44.289-69.172-104.36-69.172-166.99 0-62.637 24.883-122.7 69.172-166.99 44.289-44.289 104.36-69.172 166.99-69.172 62.633 0 122.7 24.883 166.99 69.172 44.289 44.289 69.172 104.36 69.172 166.99 0 41.453-10.914 82.18-31.641 118.08-20.727 35.902-50.539 65.715-86.441 86.441-35.898 20.727-76.625 31.641-118.08 31.641zm0-440.84c-54.285 0-106.34 21.566-144.73 59.949-38.383 38.383-59.949 90.441-59.949 144.73 0 54.281 21.566 106.34 59.949 144.72 38.383 38.387 90.441 59.949 144.73 59.949 54.281 0 106.34-21.562 144.72-59.949 38.387-38.383 59.949-90.441 59.949-144.72 0-54.285-21.562-106.34-59.949-144.73-38.383-38.383-90.441-59.949-144.72-59.949z"></path>
 </g>

      </g>
     <g id="IconSvg_iconCarrier">
      <g xmlns="http://www.w3.org/2000/svg">
  <path d="m352.77 494.46c-4.1914 0.027343-8.2227-1.625-11.195-4.582-2.9727-2.957-4.6445-6.9805-4.6406-11.172 0.003906-4.1953 1.6797-8.2148 4.6602-11.168l157.44-157.44-0.003906 0.003906c2.957-2.9805 6.9805-4.6602 11.18-4.6602s8.2227 1.6797 11.18 4.6602c2.9297 2.9492 4.5781 6.9375 4.5781 11.098 0 4.1602-1.6484 8.1484-4.5781 11.102l-157.44 157.44v-0.003907c-2.9453 3.0078-6.9727 4.707-11.18 4.7227z"></path>
  <path d="m352.77 494.46c-4.1523-0.058594-8.1133-1.7539-11.02-4.7227l-62.977-62.977c-2.9336-2.9492-4.5781-6.9375-4.5781-11.098 0-4.1602 1.6445-8.1484 4.5781-11.102 2.957-2.9805 6.9805-4.6562 11.18-4.6562 4.1953 0 8.2188 1.6758 11.176 4.6562l62.977 62.977c2.9922 2.9688 4.668 7.0078 4.6602 11.219-0.011719 4.2148-1.707 8.2461-4.7148 11.199-3.0039 2.9492-7.0703 4.5742-11.281 4.5039z"></path>
  <path d="m400 636.16c-62.637 0-122.7-24.883-166.99-69.172-44.289-44.289-69.172-104.36-69.172-166.99 0-62.637 24.883-122.7 69.172-166.99 44.289-44.289 104.36-69.172 166.99-69.172 62.633 0 122.7 24.883 166.99 69.172 44.289 44.289 69.172 104.36 69.172 166.99 0 41.453-10.914 82.18-31.641 118.08-20.727 35.902-50.539 65.715-86.441 86.441-35.898 20.727-76.625 31.641-118.08 31.641zm0-440.84c-54.285 0-106.34 21.566-144.73 59.949-38.383 38.383-59.949 90.441-59.949 144.73 0 54.281 21.566 106.34 59.949 144.72 38.383 38.387 90.441 59.949 144.73 59.949 54.281 0 106.34-21.562 144.72-59.949 38.387-38.383 59.949-90.441 59.949-144.72 0-54.285-21.562-106.34-59.949-144.73-38.383-38.383-90.441-59.949-144.72-59.949z"></path>
 </g>

      </g>
      </svg>