<svg id="svg" fill="#0a2a1a" stroke="#0a2a1a" width="200" height="200" version="1.1" viewBox="144 144 512 512" xmlns="http://www.w3.org/2000/svg">
    <g id="IconSvg_bgCarrier" stroke-width="0"></g>
    <g id="IconSvg_tracerCarrier" stroke-linecap="round" stroke-linejoin="round" stroke="#CCCCCC" stroke-width="0">
      <g xmlns="http://www.w3.org/2000/svg">
  <path d="m489.68 259.44-9.0664 12.594c38.289 27.207 60.961 71.539 60.961 118.9h15.113c0.50391-52.395-25.191-101.27-67.008-131.49z"></path>
  <path d="m275.56 390.43v78.09c0 21.16-7.0547 42.32-20.152 58.945-2.0156 2.5195-2.0156 5.543-1.0078 8.0625 1.5117 2.5195 4.0312 4.0312 6.5508 4.0312h277.6c3.0234 0 5.543-1.5117 6.5508-4.0312 1.5117-2.5195 1.0078-5.543-1.0078-8.0625-13.098-16.625-20.152-37.785-20.152-58.945v-78.09c0-60.961-43.328-112.85-100.26-124.44 3.0234-4.5352 5.0391-10.578 5.0391-16.625 0-16.121-13.098-29.223-29.223-29.223-16.121 0-29.223 13.098-29.223 29.223 0 6.0469 2.0156 12.09 5.0391 16.625-55.922 11.59-99.754 63.984-99.754 124.44z"></path>
  <path d="m319.39 272.03-8.5664-12.09c-42.32 30.23-67.512 79.098-67.512 130.99h15.113c-0.5-47.363 22.672-91.695 60.965-118.9z"></path>
  <path d="m400 579.86c12.09 0 22.168-11.082 26.703-29.727h-53.406c4.5352 18.641 14.609 29.727 26.703 29.727z"></path>
 </g>

      </g>
     <g id="IconSvg_iconCarrier">
      <g xmlns="http://www.w3.org/2000/svg">
  <path d="m489.68 259.44-9.0664 12.594c38.289 27.207 60.961 71.539 60.961 118.9h15.113c0.50391-52.395-25.191-101.27-67.008-131.49z"></path>
  <path d="m275.56 390.43v78.09c0 21.16-7.0547 42.32-20.152 58.945-2.0156 2.5195-2.0156 5.543-1.0078 8.0625 1.5117 2.5195 4.0312 4.0312 6.5508 4.0312h277.6c3.0234 0 5.543-1.5117 6.5508-4.0312 1.5117-2.5195 1.0078-5.543-1.0078-8.0625-13.098-16.625-20.152-37.785-20.152-58.945v-78.09c0-60.961-43.328-112.85-100.26-124.44 3.0234-4.5352 5.0391-10.578 5.0391-16.625 0-16.121-13.098-29.223-29.223-29.223-16.121 0-29.223 13.098-29.223 29.223 0 6.0469 2.0156 12.09 5.0391 16.625-55.922 11.59-99.754 63.984-99.754 124.44z"></path>
  <path d="m319.39 272.03-8.5664-12.09c-42.32 30.23-67.512 79.098-67.512 130.99h15.113c-0.5-47.363 22.672-91.695 60.965-118.9z"></path>
  <path d="m400 579.86c12.09 0 22.168-11.082 26.703-29.727h-53.406c4.5352 18.641 14.609 29.727 26.703 29.727z"></path>
 </g>

      </g>
      </svg>